<svg
 xmlns="http://www.w3.org/2000/svg"
 xmlns:xlink="http://www.w3.org/1999/xlink"
 width="12px" height="22px">
<path fill-rule="evenodd"
 d="M0.307,15.722 L5.290,20.725 C5.679,21.116 6.310,21.116 6.699,20.725 L11.682,15.722 C11.968,15.436 12.053,15.006 11.898,14.632 C11.745,14.258 11.381,14.014 10.978,14.014 L6.991,14.014 L6.991,1.011 C6.991,0.458 6.545,0.010 5.995,0.010 C5.444,0.010 4.998,0.458 4.998,1.011 L4.998,14.014 L1.012,14.014 C0.609,14.014 0.245,14.258 0.091,14.632 C-0.064,15.006 0.022,15.436 0.307,15.722 ZM8.572,16.015 L5.995,18.603 L3.417,16.015 L8.572,16.015 Z"/>
</svg>
