<svg
 xmlns="http://www.w3.org/2000/svg"
 xmlns:xlink="http://www.w3.org/1999/xlink"
 width="12px" height="21px">
<path fill-rule="evenodd"  fill="rgb(55, 89, 115)"
 d="M11.693,5.277 L6.710,0.275 C6.321,-0.116 5.690,-0.116 5.301,0.275 L0.318,5.277 C0.032,5.563 -0.053,5.993 0.102,6.367 C0.255,6.741 0.619,6.985 1.022,6.985 L5.009,6.985 L5.009,19.989 C5.009,20.542 5.454,20.989 6.005,20.989 C6.556,20.989 7.002,20.542 7.002,19.989 L7.002,6.985 L10.988,6.985 C11.391,6.985 11.755,6.741 11.909,6.367 C12.064,5.993 11.978,5.563 11.693,5.277 ZM3.428,4.984 L6.005,2.396 L8.582,4.984 L3.428,4.984 Z"/>
</svg>
