<?xml version="1.0" encoding="utf-8"?><svg viewBox="0 0 502.66 502.66" xmlns="http://www.w3.org/2000/svg" xmlns:xlink="http://www.w3.org/1999/xlink"><style>:root>svg{display:none}:root>svg:target{display:block}</style><svg viewBox="0 0 16 16" id="angle-right" xmlns="http://www.w3.org/2000/svg"><path d="M4 13h2l5-5-5-5H4l5 5z"/></svg><svg viewBox="0 0 330 330" id="arrow-right" xmlns="http://www.w3.org/2000/svg"><path d="M250.606 154.389l-150-149.996c-5.857-5.858-15.355-5.858-21.213.001-5.857 5.858-5.857 15.355.001 21.213l139.393 139.39L79.393 304.394c-5.857 5.858-5.857 15.355.001 21.213C82.322 328.536 86.161 330 90 330s7.678-1.464 10.607-4.394l149.999-150.004a14.996 14.996 0 000-21.213z"/></svg><svg viewBox="0 0 50 50" id="choice-close" xmlns="http://www.w3.org/2000/svg"><path d="M9.156 6.313L6.312 9.155 22.157 25 6.22 40.969l2.81 2.811L25 27.844 40.938 43.78l2.843-2.843L27.844 25 43.687 9.156l-2.843-2.844L25 22.157z"/></svg><svg viewBox="0 0 24 24" id="close" xmlns="http://www.w3.org/2000/svg"><path d="M4.99 3.99a1 1 0 00-.697 1.717L10.586 12l-6.293 6.293a1 1 0 101.414 1.414L12 13.414l6.293 6.293a1 1 0 101.414-1.414L13.414 12l6.293-6.293a1 1 0 00-.727-1.717 1 1 0 00-.687.303L12 10.586 5.707 4.293a1 1 0 00-.717-.303z"/></svg><svg viewBox="0 0 48 48" id="close-red" xmlns="http://www.w3.org/2000/svg"><path d="M36.021 8.444l3.536 3.536L11.98 39.557 8.443 36.02z"/><path d="M39.555 36.023l-3.536 3.535L8.445 11.976l3.536-3.535z"/></svg><svg viewBox="0 0 12 22" id="down-arrow" xmlns="http://www.w3.org/2000/svg"><path fill-rule="evenodd" d="M.307 15.722l4.983 5.003a.993.993 0 001.409 0l4.983-5.003a1 1 0 00-.704-1.708H6.991V1.011A.998.998 0 005.995.01a.999.999 0 00-.997 1.001v13.003H1.012a1.001 1.001 0 00-.705 1.708zm8.265.293l-2.577 2.588-2.578-2.588h5.155z"/></svg><svg viewBox="0 0 256 256" id="filter" xmlns="http://www.w3.org/2000/svg"><path d="M149.11 227.333v-98.795l89.606-118.174c2.616-3.448.156-8.4-4.17-8.4H21.454c-4.327 0-6.787 4.952-4.17 8.4l89.608 118.171v121.67a3.823 3.823 0 005.806 3.268l32.932-19.961a7.229 7.229 0 003.479-6.179z"/></svg><svg viewBox="0 0 502.664 502.664" id="icon" xmlns="http://www.w3.org/2000/svg"><path d="M153.821 358.226L0 274.337v-46.463l153.821-83.414v54.574L46.636 250.523l107.185 53.431v54.272zm26.273 29.358L282.103 115.08h32.227L212.084 387.584h-31.99zm168.749-29.358v-54.272l107.164-52.999-107.164-52.59v-53.927l153.821 83.522v46.183l-153.821 84.083z"/></svg><svg viewBox="0 0 117 22" id="logo" xmlns="http://www.w3.org/2000/svg"><path fill-rule="evenodd" d="M117 22h-6l-5-6.875L101 22h-6l8-11-8-11h6l5 6.875L111 0h6l-8 11 8 11zM76 0h15v4H81v5h9v4h-9v5h10v4H76V0zM50 0l14 11V0h5v22L50 6V0zM33 22c-6.075 0-11-4.925-11-11 0-.666.069-1.315.183-1.949l5.726 5.09C28.966 15.851 30.842 17 33 17a6 6 0 100-12c-2.244 0-4.176 1.246-5.206 3.07l-3.822-3.345A10.98 10.98 0 0133 0c6.075 0 11 4.925 11 11s-4.925 11-11 11zm-16-4v4H0L10 6H1V1h17L8 18h9zm38 4h-5V12l5 3v7z"/></svg><svg viewBox="0 0 12 2" id="minus" xmlns="http://www.w3.org/2000/svg"><path fill-rule="evenodd" d="M0 0h12v2H0V0z"/></svg><svg viewBox="0 0 489.6 489.6" id="next-arrow" xmlns="http://www.w3.org/2000/svg"><path d="M0 244.8c0 9.5 7.7 17.2 17.2 17.2h414.2L322.9 370.4c-3.3 3.3-5 7.7-5 12.1s1.7 8.8 5 12.1c6.7 6.7 17.6 6.7 24.3 0l137.6-137.7c6.4-6.4 6.4-17.8 0-24.3L347.1 95c-6.7-6.7-17.6-6.7-24.3 0-6.7 6.7-6.7 17.6 0 24.3l108.4 108.4H17.1C7.6 227.6 0 235.3 0 244.8z"/></svg><svg viewBox="0 0 12 12" id="plus" xmlns="http://www.w3.org/2000/svg"><path fill-rule="evenodd" d="M12 7H7v4.999H5V7H0V5h5V-.001h2V5h5v2z"/></svg><svg viewBox="0 0 489.9 489.9" id="prev-arrow" xmlns="http://www.w3.org/2000/svg"><path d="M5 232.9c-3.2 3.2-5 7.6-5 12.1 0 4.6 1.8 8.9 5 12.1l137.7 137.7c6.7 6.7 17.6 6.7 24.3 0s6.7-17.6 0-24.3L58.5 262.2h414.2c9.5 0 17.2-7.7 17.2-17.2s-7.7-17.1-17.2-17.1H58.5l108.4-108.5c6.7-6.7 6.7-17.6 0-24.3-6.7-6.7-17.6-6.7-24.3 0L5 232.9z"/></svg><svg viewBox="0 0 12 21" id="to-top" xmlns="http://www.w3.org/2000/svg"><path fill-rule="evenodd" d="M11.693 5.277L6.71.275a.993.993 0 00-1.409 0L.318 5.277a1 1 0 00.704 1.708h3.987v13.004a.997.997 0 101.993 0V6.985h3.986a1.001 1.001 0 00.705-1.708zm-8.265-.293l2.577-2.588 2.577 2.588H3.428z"/></svg></svg>