<?xml version="1.0" encoding="utf-8"?><svg viewBox="0 0 502.66 502.66" xmlns="http://www.w3.org/2000/svg" xmlns:xlink="http://www.w3.org/1999/xlink"><style>:root>svg{display:none}:root>svg:target{display:block}</style><svg viewBox="0 0 12 22" id="down-arrow" xmlns="http://www.w3.org/2000/svg"><path fill-rule="evenodd" d="M.307 15.722l4.983 5.003a.993.993 0 001.409 0l4.983-5.003a1 1 0 00-.704-1.708H6.991V1.011A.998.998 0 005.995.01a.999.999 0 00-.997 1.001v13.003H1.012a1.001 1.001 0 00-.705 1.708zm8.265.293l-2.577 2.588-2.578-2.588h5.155z"/></svg><svg viewBox="0 0 502.664 502.664" id="icon" xmlns="http://www.w3.org/2000/svg"><path d="M153.821 358.226L0 274.337v-46.463l153.821-83.414v54.574L46.636 250.523l107.185 53.431v54.272zm26.273 29.358L282.103 115.08h32.227L212.084 387.584h-31.99zm168.749-29.358v-54.272l107.164-52.999-107.164-52.59v-53.927l153.821 83.522v46.183l-153.821 84.083z"/></svg><svg viewBox="0 0 117 22" id="logo" xmlns="http://www.w3.org/2000/svg"><path fill-rule="evenodd" d="M117 22h-6l-5-6.875L101 22h-6l8-11-8-11h6l5 6.875L111 0h6l-8 11 8 11zM76 0h15v4H81v5h9v4h-9v5h10v4H76V0zM50 0l14 11V0h5v22L50 6V0zM33 22c-6.075 0-11-4.925-11-11 0-.666.069-1.315.183-1.949l5.726 5.09C28.966 15.851 30.842 17 33 17a6 6 0 100-12c-2.244 0-4.176 1.246-5.206 3.07l-3.822-3.345A10.98 10.98 0 0133 0c6.075 0 11 4.925 11 11s-4.925 11-11 11zm-16-4v4H0L10 6H1V1h17L8 18h9zm38 4h-5V12l5 3v7z"/></svg></svg>